<!-- icon666.com - MILLIONS vector ICONS FREE --><svg id="Layer_1" enable-background="new 0 0 512.002 512.002" viewBox="0 0 512.002 512.002" xmlns="http://www.w3.org/2000/svg"><g><g><path d="m423.461 435.995h-342.044v37.487c0 17.398 14.235 31.633 31.633 31.633h309.507c4.567 0 8.303-3.736 8.303-8.303v-54.964z" fill="#f9f6f9"></path><path d="m125.806 473.482v-37.487h-44.389v37.487c0 17.398 14.235 31.633 31.633 31.633h44.389c-17.398 0-31.633-14.235-31.633-31.633z" fill="#cbe2ff"></path><path d="m418.885 8.113h-293.079l-8.678 7.215v426.521h313.732v-421.761c-.001-6.613-5.362-11.975-11.975-11.975z" fill="#61a2f9"></path><path d="m163.627 8.113h-37.821l-8.678 7.215v426.521h46.499z" fill="#5490f9"></path><path d="m125.806 8.113h-12.756c-17.398 0-31.633 14.235-31.633 31.633v433.735c0-17.398 14.235-31.633 31.633-31.633h12.756z" fill="#80b4fb"></path><path d="m103.611 39.746c0-14.114 9.369-26.146 22.194-30.185v-1.448h-12.755c-17.398 0-31.633 14.235-31.633 31.633v433.735c0-14.114 9.369-26.146 22.195-30.185v-403.55z" fill="#61a2f9"></path><path d="m207.961 211.828s23.333 22.667 78.5 22.667 68.833-24.722 68.833-24.722l2.014-4.102v-41.137l-5.014-3.539-70.962 26.167-71.372-26.167-4.604 3.539v42.334z" fill="#6e60b8"></path><path d="m235.461 170.344-25.5-9.349-4.604 3.539v42.334l2.604 4.96s8.553 8.287 27.5 14.84z" fill="#6353b2"></path><path d="m208.3 237.519c18.275 17.237 46.986 25.032 73.032 25.032 30.265 0 56.995-9.906 73.032-25.032 1.877-1.77 2.944-4.234 2.944-6.814v-29.106c-.001 2.579-1.067 5.041-2.943 6.81-16.038 15.127-42.767 25.032-73.032 25.032s-56.995-9.906-73.032-25.032c-1.877-1.771-2.943-4.234-2.943-6.814v29.11c-.001 2.581 1.065 5.044 2.942 6.814z" fill="#ffd064"></path><path d="m235.461 225.094c-10.751-4.252-20.018-9.949-27.161-16.686-1.877-1.771-2.943-4.234-2.943-6.814v29.11c0 2.581 1.066 5.044 2.943 6.814 7.572 7.142 16.938 12.657 27.161 16.675z" fill="#ffc250"></path><path d="m392.538 148.076-104.73-38.221c-4.182-1.526-8.769-1.526-12.952 0l-104.73 38.221c-1.679.613-1.679 2.988 0 3.601l104.73 38.221c4.182 1.526 8.769 1.526 12.952 0l104.73-38.221c1.679-.613 1.679-2.988 0-3.601z" fill="#8479c2"></path><path d="m307.571 121.053c2.468-.901 5.067-1.286 7.653-1.193l-27.415-10.005c-4.182-1.526-8.769-1.526-12.952 0l-104.73 38.221c-1.679.613-1.679 2.988 0 3.601l26.766 9.768z" fill="#6e60b8"></path><path d="m170.417 238.894c-8.492-.159-15.442 7.054-15.442 15.547v15.389c0 1.126.704 2.133 1.762 2.519l5.752 2.099c4.933 1.8 10.343 1.8 15.276 0l5.752-2.099c1.058-.386 1.762-1.392 1.762-2.519v-15.786c0-8.272-6.628-14.996-14.862-15.15z" fill="#ffd064"></path><path d="m170.127 273.433v-17.181c0-6.213 3.342-11.795 8.306-14.867-2.312-1.52-5.057-2.435-8.017-2.49-8.492-.159-15.442 7.054-15.442 15.547v15.389c0 1.126.704 2.133 1.762 2.519l5.752 2.099c2.818 1.028 5.791 1.449 8.743 1.302-.683-.559-1.104-1.401-1.104-2.318z" fill="#ffc250"></path></g><g><path d="m112.913 512.002h309.507c8.714 0 15.803-7.089 15.803-15.803 0-2.506 0-239.022 0-241.418 0-4.142-3.357-7.5-7.5-7.5s-7.5 3.358-7.5 7.5v178.955h-290.055v-418.736h285.579c2.468 0 4.475 2.007 4.475 4.475v200.306c0 4.142 3.357 7.5 7.5 7.5s7.5-3.358 7.5-7.5v-200.306c0-10.739-8.736-19.475-19.474-19.475-10.476 0-284.013 0-305.835 0-21.579 0-39.133 17.555-39.133 39.133v433.735c0 21.579 17.554 39.134 39.133 39.134zm310.309-15.803c0 .428-.375.803-.803.803h-309.506c-13.307 0-24.133-10.826-24.133-24.133s10.826-24.133 24.133-24.133h310.31v47.463zm-334.442-457.066c0-13.307 10.826-24.133 24.133-24.133h5.256v418.735c-5.974 0-17.615-.904-29.389 8.347z"></path><path d="m352.655 300.6h-142.919c-4.143 0-7.5 3.358-7.5 7.5s3.357 7.5 7.5 7.5h142.919c4.143 0 7.5-3.358 7.5-7.5s-3.358-7.5-7.5-7.5z"></path><path d="m360.155 340.587c0-4.142-3.357-7.5-7.5-7.5h-142.919c-4.143 0-7.5 3.358-7.5 7.5s3.357 7.5 7.5 7.5h142.919c4.142 0 7.5-3.358 7.5-7.5z"></path><path d="m230.643 365.574c-4.143 0-7.5 3.358-7.5 7.5s3.357 7.5 7.5 7.5h101.104c4.143 0 7.5-3.358 7.5-7.5s-3.357-7.5-7.5-7.5z"></path><path d="m331.748 67.749c4.143 0 7.5-3.358 7.5-7.5s-3.357-7.5-7.5-7.5h-101.105c-4.143 0-7.5 3.358-7.5 7.5s3.357 7.5 7.5 7.5z"></path><path d="m364.671 169.167 30.3-11.058c3.76-1.372 6.189-4.844 6.189-8.846s-2.429-7.474-6.188-8.846l-104.729-38.221c-5.834-2.129-12.261-2.128-18.095 0l-104.729 38.221c-3.76 1.372-6.189 4.844-6.189 8.846 0 1.719.451 3.338 1.26 4.737v78.098c-9.02 3.265-15.152 12.06-15.152 21.729v15.389c0 4.262 2.69 8.106 6.691 9.564 6.184 2.257 9.76 3.901 15.96 3.901 6.204-.001 9.782-1.646 15.961-3.901 4.003-1.46 6.692-5.304 6.692-9.564v-15.786c0-9.786-6.356-18.229-15.152-21.355v-70.29l20.229 7.383v60.924c0 4.623 1.931 9.095 5.297 12.27 19.789 18.665 50.524 27.077 78.179 27.077 27.753 0 58.459-8.476 78.177-27.075 3.368-3.175 5.3-7.648 5.3-12.272-.001-6.006-.001-53.149-.001-60.925zm-87.38-52.88c2.517-.919 5.291-.92 7.81 0l90.357 32.976c-45.825 16.724-44.428 16.214-90.357 32.976-2.517.918-5.291.918-7.81 0-44.152-16.113-39.36-14.364-69.807-25.476h66.26c.415 3.75 3.59 6.667 7.451 6.667 4.143 0 7.5-3.358 7.5-7.5v-13.5c0-4.142-3.357-7.5-7.5-7.5-3.917 0-7.128 3.004-7.466 6.833h-66.245zm-99.649 149.558-2.585.943c-3.267 1.191-6.867 1.192-10.134 0l-2.586-.944v-12.018c0-4.271 3.469-8.106 7.802-8.048 4.137.078 7.503 3.51 7.503 7.651zm94.506-69.514c5.834 2.129 12.261 2.129 18.095 0l59.429-21.689v26.341c0 .509-.216 1.004-.589 1.357-11.893 11.215-30.612 19.204-51.359 21.917-4.107.537-7.001 4.302-6.464 8.409s4.303 7.003 8.409 6.464c19.181-2.508 36.5-8.819 50.003-18.086v9.047c0 .509-.215 1.003-.591 1.358-15.26 14.395-40.639 22.988-67.886 22.988s-52.625-8.594-67.887-22.989c-.374-.353-.589-.848-.589-1.357v-9.047c13.502 9.266 30.822 15.577 50.004 18.086 4.108.539 7.872-2.357 8.409-6.464s-2.356-7.872-6.464-8.409c-20.749-2.714-39.469-10.703-51.359-21.917-.375-.354-.59-.849-.59-1.359v-26.34z"></path></g></g></svg>